<svg width="60" height="60" viewBox="0 0 60 60" fill="none" xmlns="http://www.w3.org/2000/svg">
<path d="M15 30L31.3054 39.9171L47.5 30.0582M31.3054 57.5V39.8977" stroke="black" stroke-width="3" stroke-linecap="round" stroke-linejoin="round"/>
<path d="M33.9498 20.2849L31.9628 19.2306C31.37 18.916 30.6588 18.9198 30.0693 19.2406L16.7902 26.4679C14.4306 27.724 12.5 30.8736 12.5 33.4608V44.0532C12.5 46.6404 14.4306 49.79 16.7902 51.0461L27.2036 56.6141C29.4267 57.7952 33.0733 57.7952 35.2964 56.6141L45.7098 51.0461C48.0694 49.79 50 46.6404 50 44.0532V33.4608C50 30.8736 48.0694 27.724 45.7098 26.4679" stroke="black" stroke-width="3" stroke-linecap="round" stroke-linejoin="round"/>
<path d="M39.2839 45.3347V35.3268L21.2456 24.1204" stroke="black" stroke-width="3" stroke-linecap="round" stroke-linejoin="round"/>
<path d="M22.5806 17.8952L13.9369 10.0578L22.5806 2.22046" stroke="#FF1A58" stroke-width="3" stroke-linecap="round" stroke-linejoin="round"/>
<path d="M15.3776 10H27.985H37.5923C39.2491 10 40.5923 11.3431 40.5923 13V25.0972" stroke="#FF1A58" stroke-width="3" stroke-linecap="round" stroke-linejoin="round"/>
</svg>
