<svg width="28" height="28" viewBox="0 0 28 28" fill="none" xmlns="http://www.w3.org/2000/svg">
<path fill-rule="evenodd" clip-rule="evenodd" d="M5.83333 3.5H22.1667C23.4558 3.5 24.5 4.54417 24.5 5.83333V22.1667C24.5 23.4558 23.4558 24.5 22.1667 24.5H5.83333C4.54417 24.5 3.5 23.4558 3.5 22.1667V5.83333C3.5 4.54417 4.54417 3.5 5.83333 3.5ZM7.5565 19.8333H10.5V11.6667H7.5565V19.8333ZM8.97633 10.1698C8.07683 10.1698 7.476 9.57017 7.476 8.76983C7.476 7.9695 8.07567 7.36983 9.0755 7.36983C9.975 7.36983 10.5758 7.9695 10.5758 8.76983C10.5758 9.57017 9.97617 10.1698 8.97633 10.1698ZM18.151 19.8333H21V15.3697C21 12.8065 19.8602 11.6667 18.4357 11.6667C17.0112 11.6667 16.2517 12.1415 15.8725 12.8065V11.6667H12.929V19.8333H15.8725V15.3697C15.8725 14.0408 16.8222 13.8507 17.1068 13.8507C17.3915 13.8507 18.151 14.1353 18.151 15.3697V19.8333Z" fill="black"/>
</svg>
