<svg width="28" height="28" viewBox="0 0 28 28" fill="none" xmlns="http://www.w3.org/2000/svg">
<path fill-rule="evenodd" clip-rule="evenodd" d="M14.7509 25H4.21423C3.54343 25 3 24.4562 3 23.7857V4.21422C3 3.54352 3.54352 3 4.21423 3H23.7859C24.4564 3 25 3.54352 25 4.21422V23.7857C25 24.4563 24.4563 25 23.7859 25H18.1797V16.4804H21.0393L21.4675 13.1601H18.1797V11.0404C18.1797 10.0791 18.4466 9.424 19.8251 9.424L21.5833 9.42323V6.45359C21.2792 6.41312 20.2355 6.32272 19.0213 6.32272C16.4864 6.32272 14.7509 7.87003 14.7509 10.7116V13.1601H11.8839V16.4804H14.7509V25Z" fill="black"/>
</svg>
