<svg width="60" height="60" viewBox="0 0 60 60" fill="none" xmlns="http://www.w3.org/2000/svg">
<path d="M22.925 42.5H32.5M32.5 42.5V15C32.5 14.337 32.2366 13.7011 31.7678 13.2322C31.2989 12.7634 30.663 12.5 30 12.5H12.5M32.5 42.5H37.175M32.5 42.5V17.5H43.125C43.6861 17.4793 44.2379 17.648 44.6914 17.9791C45.1449 18.3101 45.4738 18.7842 45.625 19.325L47.5 26.25L50.6 27.025C51.1547 27.1619 51.6458 27.4846 51.9915 27.9395C52.3372 28.3944 52.5166 28.9539 52.5 29.525V40C52.5 40.663 52.2366 41.2989 51.7678 41.7678C51.2989 42.2366 50.663 42.5 50 42.5H47.775M7.5 32.5V40C7.5 40.663 7.76339 41.2989 8.23223 41.7678C8.70107 42.2366 9.33696 42.5 10 42.5H12.175" stroke="black" stroke-width="3" stroke-linecap="round" stroke-linejoin="round"/>
<path d="M7.5 22.5H22.5M17.5 37.5C16.1739 37.5 14.9021 38.0268 13.9645 38.9645C13.0268 39.9022 12.5 41.1739 12.5 42.5C12.5 43.8261 13.0268 45.0979 13.9645 46.0355C14.9021 46.9732 16.1739 47.5 17.5 47.5C18.8261 47.5 20.0978 46.9732 21.0355 46.0355C21.9732 45.0979 22.5 43.8261 22.5 42.5C22.5 41.1739 21.9732 39.9022 21.0355 38.9645C20.0978 38.0268 18.8261 37.5 17.5 37.5ZM42.5 37.5C41.1739 37.5 39.9021 38.0268 38.9645 38.9645C38.0268 39.9022 37.5 41.1739 37.5 42.5C37.5 43.8261 38.0268 45.0979 38.9645 46.0355C39.9021 46.9732 41.1739 47.5 42.5 47.5C43.8261 47.5 45.0978 46.9732 46.0355 46.0355C46.9732 45.0979 47.5 43.8261 47.5 42.5C47.5 41.1739 46.9732 39.9022 46.0355 38.9645C45.0978 38.0268 43.8261 37.5 42.5 37.5Z" stroke="#FF1A58" stroke-width="3" stroke-linecap="round" stroke-linejoin="round"/>
</svg>
