<svg width="19" height="27" viewBox="0 0 19 27" fill="none" xmlns="http://www.w3.org/2000/svg">
<path fill-rule="evenodd" clip-rule="evenodd" d="M8.7507 22.3816C8.26739 21.3796 7.54355 20.528 6.65102 19.9114C5.75848 19.2948 4.72828 18.9346 3.66266 18.8666C1.64804 18.7772 -0.906419 20.7208 0.323503 22.5633C1.75371 24.2942 3.63661 25.5433 5.73711 26.1545C6.20176 26.2284 6.67666 26.1754 7.11631 26.0008C7.55597 25.8261 7.94567 25.5355 8.2481 25.1569C8.55053 24.7783 8.75556 24.3243 8.84356 23.8384C8.93156 23.3524 8.89959 22.8508 8.7507 22.3816Z" fill="#FF1A58"/>
<path fill-rule="evenodd" clip-rule="evenodd" d="M3.5916 9.5311C1.99855 6.66339 -2.09053 11.8657 1.32098 15.4423C3.53038 17.7593 6.94467 17.8223 9.30851 20.2653C10.6205 21.6215 10.4605 25.1527 13.0845 25.8308C14.1086 26.1543 15.2121 26.0445 16.1604 25.5249C17.1088 25.0052 17.8272 24.1166 18.1628 23.048C19.1952 20.2653 19.2495 17.2233 15.0644 15.2695C10.8264 13.2981 6.3951 14.5767 3.5916 9.5311ZM3.49977 0.712656C0.153663 -1.5824 -1.56322 6.19178 1.89698 6.87136C3.07782 7.01144 4.21387 7.42816 5.2217 8.09092C6.22952 8.75368 7.08354 9.64565 7.72102 10.7013C8.83407 12.2978 11.5903 12.8572 13.1819 12.8572C15.9381 12.8572 17.2307 10.9532 17.0999 9.0346C16.9883 8.10897 16.6882 7.21958 16.2202 6.42717C15.7523 5.63476 15.1274 4.95798 14.3882 4.44303C10.4243 1.72764 6.36449 2.67231 3.49977 0.714122V0.712656Z" fill="black"/>
</svg>
