<svg width="28" height="28" viewBox="0 0 28 28" fill="none" xmlns="http://www.w3.org/2000/svg">
<path fill-rule="evenodd" clip-rule="evenodd" d="M3 9.11111C3 5.73656 5.73656 3 9.11111 3H18.8889C22.2634 3 25 5.73656 25 9.11111V18.8889C25 22.2634 22.2634 25 18.8889 25H9.11111C5.73656 25 3 22.2634 3 18.8889V9.11111ZM22.5555 6.66658C22.5555 5.99191 22.0079 5.44436 21.3332 5.44436C20.6586 5.44436 20.111 5.99191 20.111 6.66658C20.111 7.34125 20.6586 7.8888 21.3332 7.8888C22.0079 7.8888 22.5555 7.34125 22.5555 6.66658ZM14.0001 7.88897C17.3746 7.88897 20.1112 10.6255 20.1112 14.0001C20.1112 17.3746 17.3746 20.1112 14.0001 20.1112C10.6255 20.1112 7.88897 17.3746 7.88897 14.0001C7.88897 10.6255 10.6255 7.88897 14.0001 7.88897ZM10.3333 14C10.3333 11.975 11.975 10.3333 14 10.3333C16.025 10.3333 17.6667 11.975 17.6667 14C17.6667 16.025 16.025 17.6667 14 17.6667C11.975 17.6667 10.3333 16.025 10.3333 14Z" fill="black"/>
</svg>
