<svg width="28" height="28" viewBox="0 0 28 28" fill="none" xmlns="http://www.w3.org/2000/svg">
<path d="M22.3809 3H5.61905C4.17491 3 3 4.17491 3 5.61905V22.3809C3 23.8251 4.17491 25 5.61905 25H22.3809C23.8251 25 25 23.8251 25 22.3809V5.61905C25 4.17491 23.8251 3 22.3809 3ZM20.2888 12.5977C20.1687 12.6094 20.0481 12.6156 19.9274 12.6161C19.2758 12.6162 18.6343 12.454 18.0611 12.1442C17.4877 11.8343 17.0006 11.3866 16.6437 10.8414V16.8846C16.6437 17.768 16.3817 18.6316 15.8909 19.3661C15.4001 20.1006 14.7025 20.6731 13.8864 21.0112C13.0703 21.3492 12.1722 21.4377 11.3058 21.2653C10.4393 21.093 9.6435 20.6676 9.01885 20.0429C8.39419 19.4183 7.96877 18.6224 7.79643 17.756C7.62412 16.8896 7.71254 15.9915 8.0506 15.1754C8.38869 14.3592 8.96115 13.6616 9.69566 13.1708C10.4302 12.68 11.2938 12.4181 12.1772 12.4181C12.2704 12.4181 12.3615 12.4265 12.4532 12.4323V14.6333C12.3615 14.6223 12.2714 14.6055 12.1772 14.6055C11.5725 14.6055 10.9927 14.8457 10.5652 15.2732C10.1377 15.7007 9.89753 16.2805 9.89753 16.8852C9.89753 17.4897 10.1377 18.0696 10.5652 18.4971C10.9927 18.9246 11.5725 19.1647 12.1772 19.1647C13.4364 19.1647 14.5484 18.1727 14.5484 16.9134L14.5704 6.64991H16.6762C16.7724 7.56482 17.1871 8.41683 17.8479 9.05695C18.5087 9.69705 19.3734 10.0845 20.2909 10.1516V12.5977" fill="black"/>
</svg>
