<svg width="28" height="28" viewBox="0 0 28 28" fill="none" xmlns="http://www.w3.org/2000/svg">
<path fill-rule="evenodd" clip-rule="evenodd" d="M20.4031 18.5332C20.138 19.2836 19.0842 19.9044 18.2438 20.086C17.6685 20.2081 16.9183 20.3047 14.3905 19.2572C11.5514 18.081 7.609 13.8911 7.609 11.1028C7.609 9.6834 8.4274 8.03057 9.8585 8.03057C10.5471 8.03057 10.6989 8.04399 10.9255 8.58755C11.1906 9.22795 11.8374 10.8057 11.9144 10.9675C12.2323 11.631 11.591 12.0194 11.1257 12.5971C10.9772 12.7709 10.8089 12.9589 10.997 13.2824C11.184 13.5993 11.8308 14.6535 12.7812 15.4996C14.0088 16.5933 15.0043 16.9425 15.3607 17.0911C15.6258 17.2011 15.9426 17.1755 16.1362 16.9686C16.3815 16.7034 16.6862 16.2635 16.9964 15.8299C17.2153 15.5196 17.4936 15.4809 17.7851 15.5909C17.982 15.6591 20.4845 16.8213 20.5901 17.0073C20.6682 17.1426 20.6682 17.7828 20.4031 18.5332ZM14.0022 3H13.9967C7.93239 3 3 7.93389 3 14C3 16.4053 3.77551 18.6369 5.09441 20.4469L3.72381 24.5343L7.95111 23.1835C9.69021 24.3344 11.7659 25 14.0022 25C20.0665 25 25 20.0661 25 14C25 7.93389 20.0665 3 14.0022 3Z" fill="black"/>
</svg>
