<svg width="28" height="28" viewBox="0 0 28 28" fill="none" xmlns="http://www.w3.org/2000/svg">
<path d="M21.392 4.63748C16.4817 3.78751 11.4703 3.78751 6.56 4.63748C3.752 5.24998 2 7.13747 2 9.59998V18.35C2 20.85 3.752 22.7125 6.608 23.35C9.05061 23.7784 11.523 23.9958 14 24C16.4846 23.9994 18.9649 23.7862 21.416 23.3625C24.2 22.8125 26 20.8625 26 18.3625V9.61248C26 7.12497 24.2 5.17498 21.392 4.63748ZM17.912 14.5625L11.912 18.3125C11.8181 18.3721 11.7099 18.4024 11.6 18.4C11.4958 18.3991 11.3932 18.3735 11.3 18.325C11.2056 18.2653 11.1282 18.1807 11.0755 18.0797C11.0228 17.9787 10.9967 17.8649 11 17.75V10.25C11.0009 10.1393 11.0289 10.0306 11.0814 9.9344C11.1339 9.83814 11.2092 9.75745 11.3 9.69998C11.3941 9.64746 11.4992 9.61998 11.606 9.61998C11.7128 9.61998 11.8179 9.64746 11.912 9.69998L17.912 13.45C17.9987 13.5076 18.0701 13.587 18.1196 13.681C18.169 13.7749 18.1949 13.8803 18.1949 13.9875C18.1949 14.0946 18.169 14.2 18.1196 14.294C18.0701 14.3879 17.9987 14.4674 17.912 14.525V14.5625Z" fill="black"/>
</svg>
