<svg width="140" height="42" viewBox="0 0 140 42" fill="none" xmlns="http://www.w3.org/2000/svg">
<path d="M135.093 42H4.90616C2.20192 42 0 39.7756 0 37.0399V4.96282C0 2.22717 2.20192 0 4.90616 0H135.093C137.795 0 139.999 2.22717 139.999 4.96282V37.0399C140 39.7756 137.795 42 135.093 42Z" fill="black"/>
<path d="M65.3633 0V0.00283433L92.674 41.9987H135.093C137.795 41.9987 140 39.7755 140 37.0398V4.96282C140 2.22547 137.797 0 135.093 0H65.3633Z" fill="black"/>
<path d="M78.5475 27.9245C78.5475 29.6403 78.0865 30.9946 77.1677 31.9895C76.3427 32.8742 75.3208 33.3147 74.0967 33.3147C72.7778 33.3147 71.8285 32.8409 71.2547 31.8857V37.1731H69.0409V26.3231C69.0409 25.2462 69.0141 24.1412 68.9592 23.0104H70.9051L71.0288 24.6084H71.0703C71.8068 23.402 72.9262 22.8012 74.4298 22.8012C75.602 22.8012 76.5837 23.2711 77.3709 24.211C78.1521 25.152 78.5475 26.3906 78.5475 27.9245ZM67.0948 27.9245C67.0948 29.6403 66.6355 30.9946 65.7155 31.9895C64.8917 32.8742 63.8669 33.3147 62.6454 33.3147C61.3273 33.3147 60.3775 32.8409 59.8034 31.8857V37.1731H57.5903V26.3231C57.5903 25.2462 57.563 24.1412 57.508 23.0104H59.4553L59.5778 24.6084H59.6192C60.3573 23.402 61.4756 22.8012 62.9787 22.8012C64.1532 22.8012 65.1341 23.2711 65.9182 24.211C66.7011 25.152 67.0948 26.3906 67.0948 27.9245ZM31.2611 20.7796C31.2301 17.3937 33.9995 15.7469 34.1255 15.6693C32.5573 13.3565 30.1281 13.0408 29.2736 13.0152C27.233 12.7972 25.2533 14.2504 24.2134 14.2504C23.1532 14.2504 21.5517 13.0357 19.8263 13.0702C17.6069 13.1072 15.5288 14.4075 14.3899 16.4289C12.0394 20.5487 13.7913 26.6047 16.0446 29.9348C17.172 31.5668 18.4884 33.387 20.2128 33.3236C21.8967 33.2538 22.5277 32.2347 24.5618 32.2347C26.5788 32.2347 27.1708 33.3233 28.9273 33.2802C30.7379 33.2535 31.8765 31.6445 32.964 29.9967C34.2665 28.1289 34.7884 26.2843 34.8096 26.1914C34.7677 26.1795 31.2957 24.8354 31.2611 20.7796ZM109.666 27.9652C109.666 29.5155 109.226 30.7874 108.349 31.7829C107.437 32.8054 106.221 33.3174 104.706 33.3174C103.242 33.3174 102.08 32.8242 101.211 31.8457C100.345 30.8634 99.9119 29.626 99.9119 28.1346C99.9119 26.5724 100.36 25.2924 101.251 24.2981C102.148 23.3026 103.351 22.8042 104.867 22.8042C106.33 22.8042 107.504 23.2962 108.392 24.2771C109.242 25.2295 109.666 26.4595 109.666 27.9652ZM91.3506 29.1688C91.3506 30.359 90.9398 31.3266 90.124 32.0739C89.2262 32.8883 87.9701 33.296 86.3635 33.296C84.8752 33.296 83.6852 33.004 82.7876 32.4258L83.2971 30.5581C84.2683 31.1409 85.334 31.4292 86.4948 31.4292C87.3276 31.4292 87.9762 31.24 88.4389 30.8602C88.9048 30.4786 89.138 29.9713 89.138 29.337C89.138 28.769 88.9438 28.2929 88.5639 27.9052C88.1799 27.519 87.5462 27.1579 86.6585 26.8269C84.2412 25.9139 83.0317 24.5793 83.0317 22.8232C83.0317 21.6763 83.4596 20.7384 84.3102 20.0032C85.1632 19.2724 86.295 18.9051 87.7009 18.9051C88.9579 18.9051 90.0051 19.1251 90.8362 19.5661L90.2814 21.3937C89.4986 20.9645 88.6156 20.7497 87.6292 20.7497C86.8481 20.7497 86.2353 20.9441 85.7962 21.3313C85.4288 21.6763 85.2414 22.0988 85.2414 22.5975C85.2414 23.1492 85.4544 23.606 85.8788 23.9671C86.245 24.2959 86.9168 24.657 87.8856 25.0447C89.0751 25.5284 89.9469 26.0952 90.508 26.7443C91.0692 27.3927 91.3506 28.2022 91.3506 29.1688ZM98.6851 24.6903H96.2439V29.5838C96.2439 30.8281 96.6735 31.4504 97.536 31.4504C97.9295 31.4504 98.2594 31.4136 98.5194 31.3451L98.5786 33.0456C98.1424 33.2097 97.5689 33.2928 96.8594 33.2928C95.9859 33.2928 95.3031 33.0225 94.8105 32.4833C94.318 31.9444 94.0729 31.0385 94.0729 29.7654V24.6856H92.6212V23.0055H94.0729V21.1609L96.2439 20.4967V23.0055H98.6851V24.6903ZM126.751 27.5718C126.751 27.9726 126.726 28.3117 126.669 28.5864H120.033C120.058 29.5836 120.381 30.3445 120.996 30.8693C121.556 31.3399 122.278 31.5757 123.167 31.5757C124.15 31.5757 125.046 31.4173 125.852 31.0982L126.197 32.6537C125.255 33.0681 124.144 33.2738 122.859 33.2738C121.317 33.2738 120.104 32.815 119.222 31.8963C118.343 30.9786 117.902 29.7424 117.902 28.1977C117.902 26.6775 118.309 25.4122 119.13 24.4024C119.993 23.3249 121.153 22.7859 122.613 22.7859C124.048 22.7859 125.135 23.3249 125.872 24.4024C126.457 25.2569 126.751 26.3157 126.751 27.5718ZM116.858 24.9804C116.637 24.9384 116.404 24.9185 116.159 24.9185C115.382 24.9185 114.779 25.2139 114.356 25.8108C113.988 26.3356 113.804 27.0001 113.804 27.7994V33.0893H111.591V26.1815C111.591 25.0223 111.571 23.9639 111.528 23.0104H113.454L113.535 24.9384H113.598C113.831 24.2761 114.198 23.7412 114.702 23.3409C115.195 22.9815 115.729 22.8012 116.302 22.8012C116.506 22.8012 116.69 22.817 116.855 22.8427L116.858 24.9804ZM55.6833 33.0888H53.3281L52.036 28.9838H47.5506L46.3189 33.0888H44.0268L48.4723 19.1106H51.2178L55.6833 33.0888ZM107.37 28.0172C107.37 27.0938 107.172 26.3026 106.777 25.6391C106.313 24.8405 105.649 24.4396 104.789 24.4396C103.902 24.4396 103.224 24.8405 102.762 25.6391C102.364 26.3026 102.167 27.1091 102.167 28.0604C102.167 28.9825 102.364 29.7772 102.762 30.4377C103.24 31.238 103.906 31.6401 104.772 31.6401C105.618 31.6401 106.281 31.2301 106.76 30.4185C107.167 29.7422 107.37 28.9428 107.37 28.0172ZM76.2923 28.0073C76.2923 27.0255 76.0735 26.2173 75.6361 25.5817C75.1578 24.9185 74.5172 24.5862 73.7142 24.5862C73.1654 24.5862 72.6696 24.7712 72.224 25.1355C71.7822 25.5018 71.4915 25.9825 71.3553 26.5783C71.2881 26.8526 71.2513 27.0805 71.2513 27.2578V28.9399C71.2513 29.6726 71.473 30.29 71.9165 30.7973C72.3616 31.3002 72.9386 31.5535 73.6513 31.5535C74.4841 31.5535 75.1332 31.2269 75.5957 30.5803C76.0584 29.9284 76.2923 29.0713 76.2923 28.0073ZM64.8412 28.0073C64.8412 27.0255 64.6241 26.2173 64.1851 25.5817C63.7068 24.9185 63.065 24.5862 62.2609 24.5862C61.7142 24.5862 61.2176 24.7712 60.7747 25.1355C60.3317 25.5018 60.0405 25.9825 59.9043 26.5783C59.8361 26.8526 59.8017 27.0805 59.8017 27.2578V28.9399C59.8017 29.6726 60.0242 30.29 60.4676 30.7973C60.9123 31.3002 61.489 31.5535 62.1993 31.5535C63.0319 31.5535 63.6793 31.2269 64.1437 30.5803C64.6095 29.9284 64.8412 29.0713 64.8412 28.0073ZM51.6469 27.261L50.4803 23.6122C50.355 23.238 50.1231 22.36 49.7844 20.9786H49.743C49.6051 21.572 49.3855 22.45 49.0866 23.6122L47.9392 27.261H51.6469ZM124.641 26.9919C124.657 26.3277 124.511 25.7528 124.212 25.2694C123.828 24.6457 123.239 24.3351 122.45 24.3351C121.724 24.3351 121.137 24.6395 120.688 25.2485C120.319 25.7331 120.101 26.3157 120.033 26.991L124.641 26.9919ZM78.6026 11.5928C78.6026 12.3537 78.3887 12.9767 77.9584 13.4663C77.5088 13.9704 76.9128 14.2225 76.1675 14.2225C75.4502 14.2225 74.8796 13.98 74.45 13.4976C74.0263 13.0152 73.8138 12.408 73.8138 11.674C73.8138 10.9065 74.0294 10.2785 74.4702 9.78922C74.911 9.30236 75.5018 9.05695 76.2472 9.05695C76.9645 9.05695 77.5429 9.29715 77.9786 9.78007C78.3948 10.2484 78.6026 10.8519 78.6026 11.5928ZM56.663 11.5928C56.663 12.3537 56.4491 12.9767 56.0178 13.4663C55.5692 13.9704 54.9718 14.2225 54.2257 14.2225C53.5091 14.2225 52.9378 13.98 52.5106 13.4976C52.0845 13.0152 51.8723 12.408 51.8723 11.674C51.8723 10.9065 52.0911 10.2785 52.5306 9.78922C52.9714 9.30236 53.5618 9.05695 54.3081 9.05695C55.0261 9.05695 55.6024 9.29715 56.039 9.78007C56.4534 10.2484 56.663 10.8519 56.663 11.5928ZM98.0988 11.5928C98.0988 12.3537 97.8851 12.9767 97.4531 13.4663C97.0036 13.9704 96.4062 14.2225 95.6623 14.2225C94.9433 14.2225 94.3709 13.98 93.9465 13.4976C93.5198 13.0152 93.3071 12.408 93.3071 11.674C93.3071 10.9065 93.5276 10.2785 93.965 9.78922C94.4058 9.30236 94.9966 9.05695 95.7407 9.05695C96.4627 9.05695 97.036 9.29715 97.4724 9.78007C97.8878 10.2484 98.0988 10.8519 98.0988 11.5928ZM89.4333 14.1085H88.4674L88.4136 13.3121H88.3843C88.0764 13.9189 87.5547 14.221 86.8172 14.221C86.2229 14.221 85.7351 13.9867 85.3477 13.5186C84.9539 13.048 84.7646 12.441 84.7646 11.6945C84.7646 10.8924 84.9741 10.245 85.4008 9.74852C85.8101 9.28632 86.3181 9.05572 86.9178 9.05572C87.5827 9.05572 88.0418 9.27841 88.3061 9.72803V6.88458H89.3918V12.7747C89.3918 13.2554 89.4079 13.6999 89.4333 14.1085ZM83.5649 14.1085H82.5905L82.5098 13.5371H82.4796C82.1441 13.9929 81.667 14.2208 81.0494 14.2208C80.5869 14.2208 80.2134 14.0706 79.9322 13.7729C79.6773 13.5026 79.5514 13.1639 79.5514 12.7639C79.5514 12.1596 79.8011 11.6969 80.3001 11.3778C80.7996 11.0599 81.503 10.9035 82.4097 10.9092V10.8179C82.4097 10.1643 82.0708 9.84002 81.3905 9.84002C80.9093 9.84002 80.4843 9.96235 80.1181 10.2067L79.8935 9.48413C80.3493 9.19951 80.9093 9.05717 81.5752 9.05717C82.8531 9.05717 83.4976 9.73915 83.4976 11.104V12.9281C83.4927 13.4231 83.5195 13.8153 83.5649 14.1085ZM110.338 9.98283H109.14V12.3868C109.14 12.9977 109.349 13.3045 109.773 13.3045C109.969 13.3045 110.128 13.2858 110.255 13.253L110.284 14.0861C110.072 14.1699 109.789 14.2097 109.44 14.2097C109.012 14.2097 108.675 14.0782 108.434 13.8123C108.194 13.5482 108.072 13.1037 108.072 12.4785V9.98283H107.356V9.15684H108.072V8.24971L109.14 7.9244V9.15509H110.334L110.338 9.98283ZM121.398 11.3982C121.398 11.5965 121.384 11.7628 121.359 11.8982H118.096C118.111 12.3868 118.266 12.7604 118.568 13.0164C118.846 13.2495 119.201 13.3652 119.636 13.3652C120.119 13.3652 120.559 13.2858 120.953 13.1311L121.124 13.8947C120.66 14.0992 120.115 14.2013 119.483 14.2013C118.725 14.2013 118.129 13.9756 117.699 13.5228C117.264 13.0722 117.049 12.465 117.049 11.7053C117.049 10.9587 117.249 10.337 117.653 9.84002C118.072 9.31 118.643 9.04733 119.361 9.04733C120.065 9.04733 120.598 9.31 120.962 9.84002C121.254 10.2622 121.398 10.7797 121.398 11.3982ZM50.8954 10.5072C50.8954 11.7401 50.5287 12.6704 49.7973 13.2934C49.1209 13.871 48.1573 14.1589 46.9112 14.1589C46.2911 14.1589 45.7631 14.1322 45.3197 14.078V7.33296C45.8981 7.23924 46.5197 7.18991 47.1921 7.18991C48.38 7.18991 49.2761 7.45135 49.8792 7.9752C50.5555 8.56343 50.8954 9.40814 50.8954 10.5072ZM103.642 14.1085H102.557V11.2651C102.557 10.3888 102.228 9.95222 101.57 9.95222C101.249 9.95222 100.985 10.0714 100.785 10.3133C100.582 10.5521 100.483 10.8381 100.483 11.1642V14.1068H99.3943V10.573C99.3943 10.1377 99.3848 9.66442 99.3573 9.15536H100.31L100.362 9.9187H100.391C100.52 9.68366 100.707 9.48585 100.956 9.32875C101.251 9.14722 101.579 9.05375 101.942 9.05375C102.398 9.05375 102.777 9.20296 103.08 9.50336C103.455 9.86888 103.642 10.4159 103.642 11.1437V14.1085ZM69.8381 14.1085H68.7512V11.2651C68.7512 10.3888 68.423 9.95222 67.7651 9.95222C67.4425 9.95222 67.181 10.0714 66.9798 10.3133C66.7761 10.5521 66.6769 10.8381 66.6769 11.1642V14.1068H65.59V10.573C65.59 10.1377 65.5759 9.66442 65.5503 9.15536H66.5061L66.5571 9.9187H66.5868C66.714 9.68366 66.9021 9.48585 67.1506 9.32875C67.4452 9.14722 67.7746 9.05375 68.1357 9.05375C68.5921 9.05375 68.9719 9.20296 69.2743 9.50336C69.6505 9.86888 69.8381 10.4159 69.8381 11.1437V14.1085ZM115.773 14.1085H114.682V11.2861C114.682 10.3967 114.358 9.95222 113.701 9.95222C113.195 9.95222 112.851 10.2085 112.661 10.7259C112.629 10.8354 112.61 10.9664 112.61 11.1228V14.1068H111.524V6.88507H112.61V9.86096H112.632C112.973 9.32478 113.465 9.05547 114.101 9.05547C114.551 9.05547 114.924 9.2074 115.22 9.50509C115.587 9.87628 115.773 10.4334 115.773 11.1659V14.1085ZM64.5023 9.15857L62.9734 14.1083H61.9754L61.3421 11.9581C61.182 11.4219 61.051 10.8875 60.9479 10.3592H60.9294C60.8348 10.9033 60.7038 11.435 60.5356 11.9581L59.8636 14.1083H58.8556L57.4166 9.15684H58.5338L59.0871 11.5105C59.2197 12.0676 59.3312 12.5976 59.4185 13.1003H59.4375C59.5193 12.685 59.6538 12.1594 59.8429 11.5201L60.5356 9.15857H61.4228L62.0879 11.4695C62.2483 12.0341 62.3794 12.5784 62.48 13.102H62.5102C62.5835 12.593 62.6946 12.0489 62.8418 11.4695L63.4361 9.15857H64.5023L64.5028 9.15684V9.15857H64.5023ZM72.5132 14.1083H71.4258V6.88482H72.5132V14.1083ZM82.4377 12.408V11.6432C81.237 11.6227 80.6371 11.9549 80.6371 12.642C80.6371 12.8993 80.709 13.0926 80.8466 13.2224C80.9872 13.3523 81.1641 13.4135 81.3781 13.4135C81.6171 13.4135 81.8378 13.338 82.044 13.1861C82.2467 13.0325 82.3722 12.8381 82.4192 12.5989C82.4297 12.5468 82.4377 12.4822 82.4377 12.408ZM77.4769 11.6185C77.4769 11.1639 77.3782 10.7738 77.185 10.4507C76.955 10.0585 76.6302 9.86074 76.208 9.86074C75.7723 9.86074 75.4424 10.0585 75.2112 10.4507C75.0167 10.7767 74.9205 11.1706 74.9205 11.639C74.9205 12.093 75.0167 12.4834 75.2112 12.8083C75.4468 13.1989 75.7733 13.3967 76.1972 13.3967C76.6144 13.3967 76.9382 13.1955 77.1738 12.7969C77.3738 12.466 77.4769 12.0726 77.4769 11.6185ZM96.9705 11.6185C96.9705 11.1639 96.872 10.7738 96.6783 10.4507C96.4515 10.0585 96.1277 9.86074 95.7044 9.86074C95.2654 9.86074 94.9372 10.0585 94.7076 10.4507C94.5132 10.7767 94.4153 11.1706 94.4153 11.639C94.4153 12.093 94.5132 12.4834 94.7076 12.8083C94.9433 13.1989 95.2715 13.3967 95.6954 13.3967C96.1091 13.3967 96.4347 13.1955 96.6688 12.7969C96.8686 12.466 96.9705 12.0726 96.9705 11.6185ZM55.5351 11.6185C55.5351 11.1639 55.4377 10.7738 55.2435 10.4507C55.0149 10.0585 54.6894 9.86074 54.2679 9.86074C53.8305 9.86074 53.4994 10.0585 53.2703 10.4507C53.0749 10.7767 52.9799 11.1706 52.9799 11.639C52.9799 12.093 53.0766 12.4834 53.2703 12.8083C53.5062 13.1989 53.8344 13.3967 54.2576 13.3967C54.6728 13.3967 54.9986 13.1955 55.2323 12.7969C55.4359 12.466 55.5351 12.0726 55.5351 11.6185ZM88.3061 12.0203V11.1945C88.3061 11.0515 88.2966 10.9366 88.2764 10.848C88.2143 10.5839 88.0825 10.3606 87.8792 10.1821C87.6792 10.0013 87.437 9.91103 87.1541 9.91103C86.7482 9.91103 86.4322 10.0738 86.2012 10.4004C85.9648 10.7279 85.8508 11.1435 85.8508 11.6543C85.8508 12.1433 85.9614 12.5407 86.1819 12.8458C86.42 13.1716 86.7353 13.3326 87.1324 13.3326C87.4892 13.3326 87.7764 13.1972 87.9908 12.9267C88.2013 12.6763 88.3061 12.373 88.3061 12.0203ZM49.7481 10.5395C49.7481 9.73915 49.5388 9.12525 49.1192 8.69782C48.7004 8.27213 48.0883 8.05906 47.2818 8.05906C46.9397 8.05906 46.6486 8.08101 46.4066 8.12985V13.2542C46.5399 13.2747 46.784 13.2843 47.1412 13.2843C47.9735 13.2843 48.6153 13.0502 49.0683 12.5831C49.519 12.1147 49.7481 11.433 49.7481 10.5395ZM27.9415 10.8241C28.8486 9.67574 29.4685 8.11455 29.2967 6.52917C27.9846 6.58738 26.3431 7.4479 25.3963 8.57157C24.5613 9.56056 23.8142 11.1817 24.0062 12.7084C25.4813 12.8194 26.9956 11.9549 27.9415 10.8241ZM120.362 11.1136C120.368 10.7859 120.296 10.5064 120.149 10.2689C119.962 9.96236 119.674 9.80991 119.286 9.80991C118.93 9.80991 118.64 9.9589 118.421 10.2593C118.24 10.4963 118.133 10.7797 118.096 11.1136H120.362Z" fill="white"/>
</svg>
