<svg width="140" height="42" viewBox="0 0 140 42" fill="none" xmlns="http://www.w3.org/2000/svg">
<path d="M135.092 42H4.90613C2.20191 42 0 39.7757 0 37.04V4.96282C0 2.22717 2.20191 0 4.90613 0H135.092C137.794 0 139.998 2.22717 139.998 4.96282V37.04C139.999 39.7757 137.794 42 135.092 42Z" fill="black"/>
<path d="M65.3633 0V0.00283428L92.6738 41.9989H135.092C137.795 41.9989 140 39.7757 140 37.04V4.96282C140 2.22547 137.796 0 135.092 0H65.3633Z" fill="#222222"/>
<path d="M13.2148 8.72035V35.5013C13.2148 35.8223 13.3546 36.0404 13.5729 36.1147L27.6588 21.9767L13.6905 7.95667C13.4093 8.03615 13.2148 8.29344 13.2148 8.72035Z" fill="url(#paint0_linear_5382_9903)"/>
<path d="M13.8898 7.93066C13.8201 7.93066 13.7538 7.93979 13.6914 7.95729L27.6597 21.9774L31.5395 18.0833L25.7086 14.6754C25.7086 14.6754 25.6982 14.6697 25.6787 14.6581L25.6774 14.6574C25.6727 14.6547 25.6676 14.6517 25.6618 14.6484L25.6605 14.6475C25.6561 14.6448 25.6518 14.6425 25.6471 14.6397L25.6451 14.6384C25.6441 14.6378 25.6434 14.6376 25.6424 14.637L25.6389 14.6349C25.6381 14.6344 25.6372 14.634 25.636 14.6334L25.6325 14.6311C25.6325 14.6311 25.6321 14.6307 25.6317 14.6306L25.6278 14.6285C25.6265 14.6277 25.6253 14.6271 25.624 14.6264L14.4284 8.08317C14.2431 7.98106 14.0587 7.93066 13.8919 7.93066H13.8898Z" fill="url(#paint1_linear_5382_9903)"/>
<path d="M27.6599 21.9775L13.5742 36.1151C13.7388 36.171 13.9486 36.145 14.1765 36.0185L15.8073 35.0653C18.984 33.2082 25.709 29.2778 25.709 29.2778L28.6243 27.5743L31.5397 25.8711L27.6604 21.9775H27.6599Z" fill="url(#paint2_linear_5382_9903)"/>
<path d="M27.6602 21.9773L31.5398 25.8712L35.8042 23.3786C36.4497 23.0017 36.962 22.7024 37.1444 22.5957C37.7801 22.224 37.742 21.7185 37.2365 21.412L37.2008 21.3913C37.1951 21.3878 37.1895 21.3848 37.1839 21.3818C36.6655 21.099 32.1866 18.4638 31.6028 18.12L31.54 18.0833L27.6602 21.9773Z" fill="url(#paint3_linear_5382_9903)"/>
<path d="M80.7789 19.8414C81.1793 20.1767 82.0159 20.8822 82.0159 22.2234C82.0159 23.5271 81.2837 24.1459 80.5516 24.7274C80.3252 24.9563 80.0639 25.2041 80.0639 25.5924C80.0639 25.9792 80.3252 26.1914 80.5176 26.3502L81.1449 26.8431C81.9118 27.4959 82.608 28.096 82.608 29.3138C82.608 30.9714 81.0221 32.6468 78.0259 32.6468C75.499 32.6468 74.2796 31.4302 74.2796 30.1238C74.2796 29.4892 74.5921 28.5901 75.6214 27.9718C76.7009 27.3019 78.1655 27.2148 78.9489 27.1606C78.7049 26.8431 78.4264 26.5082 78.4264 25.9622C78.4264 25.6629 78.514 25.486 78.6004 25.2738C78.408 25.2916 78.2172 25.309 78.0423 25.309C76.196 25.309 75.151 23.9155 75.151 22.5406C75.151 21.729 75.517 20.8292 76.2652 20.1767C77.2586 19.3477 78.4436 19.2068 79.3854 19.2068H82.9737L81.8587 19.8414H80.7789ZM79.5418 27.6732C79.4022 27.6546 79.315 27.6546 79.1413 27.6546C78.9845 27.6546 78.0424 27.6907 77.3114 27.9385C76.9281 28.0782 75.8127 28.5014 75.8127 29.7544C75.8127 31.0058 77.0153 31.9068 78.8801 31.9068C80.5516 31.9068 81.4414 31.0937 81.4414 30.0011C81.4414 29.1004 80.8661 28.6261 79.5418 27.6732ZM104.151 27.6446C103.609 27.6446 103.114 27.5435 102.666 27.341C102.217 27.1381 101.841 26.8264 101.537 26.4059H101.446C101.506 26.8985 101.537 27.3654 101.537 27.806V31.2761H100.275V19.0581H101.301L101.476 20.212H101.537C101.861 19.7504 102.239 19.4174 102.67 19.2118C103.1 19.007 103.595 18.904 104.151 18.904C105.257 18.904 106.11 19.2866 106.709 20.0509C107.31 20.8148 107.611 21.887 107.611 23.2669C107.611 24.6516 107.305 25.7276 106.695 26.495C106.083 27.2613 105.236 27.6446 104.151 27.6446ZM119.453 19.0581H120.805L122.629 23.8667C123.03 24.9648 123.278 25.757 123.375 26.2449H123.435C123.501 25.9827 123.64 25.5355 123.849 24.9017C124.06 24.2678 124.748 22.3206 125.913 19.0581H127.267L123.686 28.6602C123.331 29.6088 122.917 30.2822 122.443 30.6802C121.969 31.0775 121.388 31.2761 120.699 31.2761C120.314 31.2761 119.934 31.2323 119.558 31.1456V30.1222C119.837 30.1838 120.149 30.2148 120.494 30.2148C121.36 30.2148 121.978 29.7223 122.348 28.7372L122.812 27.5369L119.453 19.0581ZM54.8071 27.1145L52.3058 27.6992C51.2907 27.8591 50.3818 27.9993 49.4202 27.9993C44.5929 27.9993 42.7568 24.4053 42.7568 21.5904C42.7568 18.1563 45.3629 14.9701 49.823 14.9701C50.7678 14.9701 51.6766 15.1118 52.4982 15.3418C53.8099 15.7139 54.4219 16.1735 54.8071 16.4399L53.3551 17.8381L52.7431 17.9794L53.1806 17.2708C52.5862 16.6865 51.5007 15.6074 49.4374 15.6074C46.6745 15.6074 44.5929 17.7327 44.5929 20.8303C44.5929 24.1579 46.9721 27.2915 50.7838 27.2915C51.9042 27.2915 52.4803 27.0615 53.0051 26.8489V23.9991L50.3646 24.1401L51.7634 23.3785H55.4711L55.0167 23.8206C54.8935 23.9271 54.8767 23.9635 54.8415 24.1037C54.8235 24.2636 54.8071 24.7774 54.8071 24.954V27.1145ZM117.785 27.4905L117.534 26.2902H117.474C117.058 26.8191 116.644 27.1772 116.23 27.3635C115.818 27.5513 115.302 27.6446 114.684 27.6446C113.858 27.6446 113.211 27.4289 112.742 26.9983C112.273 26.5674 112.039 25.9549 112.039 25.1596C112.039 23.4567 113.385 22.5642 116.075 22.4821L117.489 22.4356V21.9125C117.489 21.2508 117.348 20.7622 117.067 20.447C116.786 20.131 116.336 19.9742 115.718 19.9742C115.024 19.9742 114.238 20.1891 113.362 20.6205L112.974 19.6432C113.384 19.4174 113.834 19.2401 114.323 19.1119C114.812 18.9838 115.302 18.9195 115.794 18.9195C116.787 18.9195 117.523 19.1429 118.002 19.589C118.48 20.0354 118.72 20.7506 118.72 21.7356V27.4905H117.785ZM110.531 27.4905H109.27V15.5191H110.531V27.4905ZM93.4235 26.768C93.233 26.8733 93.0418 26.9972 92.8517 27.0843C92.2775 27.348 91.6869 27.4185 91.1652 27.4185C90.6105 27.4185 89.7415 27.3821 88.8548 26.7323C87.6227 25.853 87.0842 24.341 87.0842 23.0226C87.0842 20.2975 89.2725 18.9617 91.0615 18.9617C91.6869 18.9617 92.3303 19.1193 92.8517 19.4542C93.7192 20.0335 93.9449 20.7893 94.0658 21.1943L89.9855 22.8646L88.6475 22.9703C89.0809 25.2029 90.5746 26.5031 92.2259 26.5031C93.111 26.5031 93.754 26.1872 94.3442 25.8886L93.4235 26.768ZM60.3807 27.391C57.6147 27.391 56.1359 25.2072 56.1359 23.2348C56.1359 20.9275 57.998 18.9567 60.6419 18.9567C63.199 18.9567 64.7991 20.9805 64.7991 23.1117C64.7991 25.189 63.2166 27.391 60.3807 27.391ZM69.8096 27.391C67.0436 27.391 65.5652 25.2072 65.5652 23.2348C65.5652 20.9275 67.4261 18.9567 70.0716 18.9567C72.6275 18.9567 74.228 20.9805 74.228 23.1117C74.228 25.189 72.6459 27.391 69.8096 27.391ZM86.3065 26.605C85.7293 26.5515 85.6084 26.4462 85.6084 25.7547V15.7348C85.6123 15.6965 85.6142 15.6578 85.618 15.6206C85.6884 15.0015 85.8632 14.895 86.406 14.5756H83.9043L82.592 15.2133H83.9292V15.2218L83.9281 15.2148V26.1446C83.9281 26.4977 83.8592 26.5515 83.456 27.0824H86.5521L87.1993 26.6944C86.9025 26.6572 86.6045 26.6406 86.3065 26.605ZM62.5552 25.9649C62.9729 25.4008 63.0774 24.6965 63.0774 24.0096C63.0774 22.4593 62.3468 19.5018 60.1894 19.5018C59.6156 19.5018 59.0415 19.7311 58.6238 20.1012C57.9456 20.7169 57.8239 21.492 57.8239 22.2502C57.8239 23.9918 58.6758 26.8613 60.7815 26.8613C61.4601 26.8613 62.1555 26.5275 62.5552 25.9649ZM71.9838 25.9649C72.4018 25.4008 72.5063 24.6965 72.5063 24.0096C72.5063 22.4593 71.7761 19.5018 69.6183 19.5018C69.0446 19.5018 68.4708 19.7311 68.0531 20.1012C67.3749 20.7169 67.2521 21.492 67.2521 22.2502C67.2521 23.9918 68.1051 26.8613 70.2104 26.8613C70.8886 26.8613 71.5844 26.5275 71.9838 25.9649ZM114.935 26.5906C115.72 26.5906 116.337 26.3726 116.786 25.937C117.234 25.5011 117.459 24.8905 117.459 24.1052V23.344L116.196 23.397C115.193 23.4334 114.47 23.591 114.026 23.8714C113.583 24.1505 113.362 24.5853 113.362 25.1754C113.362 25.6366 113.499 25.9882 113.776 26.229C114.052 26.4702 114.438 26.5906 114.935 26.5906ZM103.969 19.9893C103.118 19.9893 102.502 20.2278 102.123 20.7045C101.742 21.1819 101.547 21.9412 101.537 22.9824V23.2669C101.537 24.4518 101.732 25.2997 102.123 25.81C102.513 26.3204 103.139 26.5751 103.999 26.5751C104.719 26.5751 105.283 26.2805 105.691 25.6908C106.099 25.1011 106.303 24.288 106.303 23.2515C106.303 22.1998 106.099 21.3933 105.691 20.8319C105.283 20.2697 104.709 19.9893 103.969 19.9893ZM80.0471 24.3217C80.4476 23.9155 80.4816 23.3513 80.4816 23.0338C80.4816 21.7642 79.7327 19.7888 78.2872 19.7888C77.8335 19.7888 77.3462 20.018 77.0673 20.3711C76.7717 20.7416 76.6837 21.2171 76.6837 21.6767C76.6837 22.8581 77.3634 24.8157 78.8621 24.8157C79.2981 24.8157 79.7671 24.6039 80.0471 24.3217ZM91.7914 21.528C92.1207 21.4053 92.2947 21.2992 92.2947 21.0533C92.2947 20.3506 91.5136 19.5413 90.5746 19.5413C89.8792 19.5413 88.5775 20.0865 88.5775 21.9853C88.5775 22.2842 88.6123 22.6002 88.6303 22.9181L91.7914 21.528ZM95.1001 19.0821V20.2422H94.9608V19.0821H94.5818V18.9617H95.4791V19.0821H95.1001ZM96.6623 20.2422V19.0713H96.6557L96.3027 20.2422H96.1941L95.8379 19.0713H95.8337V20.2422H95.7071V18.9617H95.9236L96.2461 19.9963H96.2507L96.5678 18.9617H96.7877V20.2422H96.6623ZM83.6354 9.66746C83.6354 10.2301 83.4656 10.6966 83.1248 11.0664C82.7847 11.4369 82.364 11.622 81.8625 11.622C81.3843 11.622 80.9843 11.452 80.6618 11.1121C80.3397 10.7721 80.1787 10.3396 80.1787 9.81575C80.1787 9.25315 80.3485 8.78659 80.6889 8.41681C81.0294 8.04665 81.4502 7.86157 81.9516 7.86157C82.4298 7.86157 82.8302 8.03078 83.1523 8.36996C83.4744 8.70915 83.6354 9.14126 83.6354 9.66746ZM61.1912 9.66746C61.1912 10.2301 61.0206 10.6966 60.6805 11.0664C60.3401 11.4369 59.9193 11.622 59.4179 11.622C58.9397 11.622 58.5396 11.452 58.2175 11.1121C57.8951 10.7721 57.7341 10.3396 57.7341 9.81575C57.7341 9.25315 57.9039 8.78659 58.2447 8.41681C58.5852 8.04665 59.0055 7.86157 59.5074 7.86157C59.9851 7.86157 60.3852 8.03078 60.7077 8.36996C61.0298 8.70915 61.1912 9.14126 61.1912 9.66746ZM66.6634 9.60976C66.6634 10.1302 66.4982 10.5847 66.1692 10.9731C65.8391 11.3618 65.3774 11.5562 64.7841 11.5562C64.516 11.5562 64.1465 11.545 63.676 11.5229C63.6989 10.9692 63.7108 10.3454 63.7108 9.65081C63.7108 8.98367 63.6989 8.41488 63.676 7.94366H64.1507L64.8002 7.92701C65.4535 7.92701 65.9271 8.09234 66.222 8.42185C66.5161 8.75213 66.6634 9.14745 66.6634 9.60976ZM53.6687 9.60976C53.6687 10.1302 53.5039 10.5847 53.1745 10.9731C52.8448 11.3618 52.3831 11.5562 51.7891 11.5562C51.5217 11.5562 51.1522 11.545 50.6813 11.5229C50.705 10.9692 50.7165 10.3454 50.7165 9.65081C50.7165 8.98367 50.705 8.41488 50.6813 7.94366H51.1564L51.8055 7.92701C52.4592 7.92701 52.9332 8.09234 53.2273 8.42185C53.5215 8.75213 53.6687 9.14745 53.6687 9.60976ZM78.3101 8.88145C78.3101 9.31937 78.1495 9.64267 77.8285 9.85176C77.5068 10.0605 77.1129 10.165 76.6454 10.165C76.5605 10.165 76.5001 10.1635 76.4633 10.1592C76.4633 10.5038 76.4733 10.9588 76.4932 11.5229H75.7301C75.7538 10.9936 75.7657 10.3694 75.7657 9.65081C75.7657 8.99102 75.7538 8.42185 75.7301 7.94366H76.2029C76.2698 7.94366 76.3983 7.94095 76.5884 7.93514C76.7785 7.93011 76.943 7.92739 77.0826 7.92739C77.4265 7.92739 77.7172 8.006 77.9544 8.16397C78.1919 8.32156 78.3101 8.56046 78.3101 8.88145ZM75.053 8.88145C75.053 9.31937 74.8924 9.64267 74.5707 9.85176C74.2498 10.0605 73.8554 10.165 73.3883 10.165C73.303 10.165 73.2426 10.1635 73.2063 10.1592C73.2063 10.5038 73.2162 10.9588 73.2361 11.5229H72.473C72.4963 10.9936 72.5082 10.3694 72.5082 9.65081C72.5082 8.99102 72.4963 8.42185 72.473 7.94366H72.9458C73.0127 7.94366 73.1412 7.94095 73.331 7.93514C73.5211 7.93011 73.6859 7.92739 73.8255 7.92739C74.169 7.92739 74.4601 8.006 74.6973 8.16397C74.9348 8.32156 75.053 8.56046 75.053 8.88145ZM57.2984 11.5229H56.4943C56.2839 10.8743 56.1229 10.474 56.0108 10.3214C55.8984 10.1693 55.7178 10.0934 55.4677 10.0934C55.3625 10.0934 55.2623 10.0945 55.1663 10.0961C55.1663 10.5669 55.1747 11.0428 55.1907 11.5229H54.436C54.4594 10.9692 54.4709 10.3454 54.4709 9.65081C54.4709 8.98367 54.4594 8.41487 54.436 7.94404H54.9058C54.9601 7.94404 55.0733 7.94095 55.2466 7.93552C55.4195 7.9301 55.5794 7.92739 55.7259 7.92739C56.5567 7.92739 56.9721 8.21469 56.9721 8.79084C56.9721 9.24657 56.7349 9.56485 56.2606 9.74451V9.78555C56.4435 9.83704 56.6041 9.98147 56.7415 10.2184C56.8788 10.4558 57.0647 10.8914 57.2984 11.5229ZM49.7327 11.5229H49.0614C49.0614 11.4478 48.8127 11.0513 48.3147 10.3327C47.7934 9.57608 47.4961 9.05801 47.4239 8.77961H47.3806C47.4254 9.18114 47.4483 9.54394 47.4483 9.86802C47.4483 10.321 47.4609 10.8724 47.4862 11.5229H46.8179C46.8455 10.9549 46.8593 10.3307 46.8593 9.65081C46.8593 8.98212 46.8455 8.41294 46.8179 7.94404H47.6251C47.6251 8.04084 47.8484 8.42882 48.2956 9.1068C48.7722 9.82698 49.0449 10.3152 49.1157 10.5719H49.1566C49.113 10.1635 49.0916 9.79639 49.0916 9.47231C49.0916 8.97554 49.079 8.46598 49.0537 7.94404H49.7327C49.7067 8.39823 49.6944 8.96741 49.6944 9.65081C49.6944 10.3396 49.7067 10.9638 49.7327 11.5229ZM87.3167 11.5229H86.6462C86.6462 11.4478 86.3972 11.0513 85.8991 10.3327C85.3778 9.57608 85.0809 9.05801 85.0083 8.77961H84.9647C85.0102 9.18114 85.0328 9.54394 85.0328 9.86802C85.0328 10.321 85.0454 10.8724 85.071 11.5229H84.4028C84.4299 10.9549 84.4433 10.3307 84.4433 9.65081C84.4433 8.98212 84.4299 8.41294 84.4028 7.94404H85.2091C85.2091 8.04084 85.4332 8.42882 85.8804 9.1068C86.3566 9.82698 86.6297 10.3152 86.7005 10.5719H86.7411C86.6974 10.1635 86.6756 9.79639 86.6756 9.47231C86.6756 8.97554 86.6634 8.46598 86.6378 7.94404H87.3167C87.2915 8.39823 87.2789 8.96741 87.2789 9.65081C87.2789 10.3396 87.2915 10.9638 87.3167 11.5229ZM62.7266 11.5229H61.9581C61.9819 10.9549 61.9937 10.3307 61.9937 9.65081C61.9937 8.98212 61.9819 8.41294 61.9581 7.94404H62.7266C62.7029 8.40558 62.6914 8.97476 62.6914 9.65081C62.6914 10.3416 62.7029 10.9657 62.7266 11.5229ZM46.2308 11.5229H45.3617C45.3617 11.4021 45.2791 11.0594 45.1142 10.4949H43.8596C43.6894 11.0505 43.6041 11.3928 43.6041 11.5229H42.787C42.787 11.4513 42.9982 10.8651 43.4209 9.76386C43.8435 8.66229 44.0551 8.05517 44.0551 7.94404H45.0817C45.0817 8.0482 45.273 8.64564 45.6563 9.73715C46.0391 10.8287 46.2308 11.4238 46.2308 11.5229ZM71.8855 11.5229H71.016C71.016 11.4021 70.9338 11.0594 70.7685 10.4949H69.5143C69.344 11.0505 69.2588 11.3928 69.2588 11.5229H68.4417C68.4417 11.4513 68.6532 10.8651 69.0755 9.76386C69.4982 8.66229 69.7097 8.05517 69.7097 7.94404H70.736C70.736 8.0482 70.9276 8.64564 71.3105 9.73715C71.6938 10.8287 71.8855 11.4238 71.8855 11.5229ZM60.4415 9.74722C60.4415 9.3635 60.3447 9.05336 60.1512 8.81524C59.9572 8.57711 59.7182 8.45747 59.434 8.45747C59.1696 8.45747 58.9455 8.5775 58.7603 8.81795C58.576 9.05801 58.4834 9.36157 58.4834 9.72785C58.4834 10.1092 58.5809 10.419 58.7756 10.6583C58.97 10.8972 59.2086 11.0172 59.4909 11.0172C59.7553 11.0172 59.9802 10.8964 60.1645 10.6556C60.3493 10.4144 60.4415 10.112 60.4415 9.74722ZM82.8861 9.74722C82.8861 9.3635 82.7893 9.05336 82.5954 8.81524C82.4018 8.57711 82.1628 8.45747 81.8789 8.45747C81.6143 8.45747 81.3897 8.5775 81.2054 8.81795C81.0202 9.05801 80.928 9.36157 80.928 9.72785C80.928 10.1092 81.0256 10.419 81.2203 10.6583C81.4146 10.8972 81.6533 11.0172 81.9356 11.0172C82.2003 11.0172 82.4244 10.8964 82.6088 10.6556C82.7939 10.4144 82.8861 10.112 82.8861 9.74722ZM52.9274 9.72824C52.9274 9.3759 52.8257 9.07969 52.6229 8.83847C52.4202 8.59763 52.1104 8.47721 51.6942 8.47721C51.6162 8.47721 51.5095 8.48534 51.3737 8.50199C51.3916 8.86828 51.4008 9.25122 51.4008 9.65081C51.4008 10.0891 51.4096 10.5235 51.428 10.9541C51.5458 10.9773 51.6632 10.9897 51.781 10.9897C52.1704 10.9897 52.4588 10.867 52.6463 10.6223C52.8333 10.378 52.9274 10.0798 52.9274 9.72824ZM65.9217 9.72824C65.9217 9.3759 65.8203 9.07969 65.6176 8.83847C65.4149 8.59763 65.1051 8.47721 64.6889 8.47721C64.6109 8.47721 64.5041 8.48534 64.3683 8.50199C64.3863 8.86828 64.3951 9.25122 64.3951 9.65081C64.3951 10.0891 64.4043 10.5235 64.4227 10.9541C64.5401 10.9773 64.6579 10.9897 64.7753 10.9897C65.1651 10.9897 65.4531 10.867 65.641 10.6223C65.828 10.378 65.9217 10.0798 65.9217 9.72824ZM44.9758 9.96985C44.6663 9.02432 44.511 8.51284 44.511 8.43578H44.4678C44.4678 8.50742 44.3075 9.01851 43.9874 9.96985H44.9758ZM70.6304 9.96985C70.321 9.02432 70.1657 8.51284 70.1657 8.43578H70.1221C70.1221 8.50742 69.9622 9.01851 69.642 9.96985H70.6304ZM77.6097 9.03245C77.6097 8.64022 77.3527 8.4443 76.8382 8.4443C76.7097 8.4443 76.5739 8.45746 76.4308 8.48534C76.4507 8.8315 76.4611 9.22373 76.4611 9.66203C76.5062 9.66552 76.5586 9.66746 76.6183 9.66746C77.2793 9.66746 77.6097 9.45605 77.6097 9.03245ZM74.3523 9.03245C74.3523 8.64022 74.0956 8.4443 73.5811 8.4443C73.4526 8.4443 73.3164 8.45746 73.1738 8.48534C73.1936 8.8315 73.2036 9.22373 73.2036 9.66203C73.2487 9.66552 73.3011 9.66746 73.3612 9.66746C74.0222 9.66746 74.3523 9.45605 74.3523 9.03245ZM56.2797 8.99373C56.2797 8.62899 56.048 8.44663 55.5843 8.44663C55.4145 8.44663 55.2642 8.45979 55.1338 8.48534C55.1536 8.76954 55.1636 9.13971 55.1636 9.59582C55.263 9.5997 55.3476 9.60124 55.416 9.60124C55.9921 9.60124 56.2797 9.39913 56.2797 8.99373Z" fill="#FBFBFB"/>
<defs>
<linearGradient id="paint0_linear_5382_9903" x1="20.4281" y1="7.50237" x2="20.4281" y2="36.4975" gradientUnits="userSpaceOnUse">
<stop stop-color="#227CB0"/>
<stop offset="1" stop-color="#88CFBD"/>
</linearGradient>
<linearGradient id="paint1_linear_5382_9903" x1="13.2199" y1="14.9668" x2="31.5347" y2="14.9668" gradientUnits="userSpaceOnUse">
<stop stop-color="#52C1AD"/>
<stop offset="1" stop-color="#DEE89A"/>
</linearGradient>
<linearGradient id="paint2_linear_5382_9903" x1="22.5544" y1="21.9728" x2="22.5544" y2="36.5757" gradientUnits="userSpaceOnUse">
<stop stop-color="#ED403D"/>
<stop offset="1" stop-color="#8A4A9D"/>
</linearGradient>
<linearGradient id="paint3_linear_5382_9903" x1="32.7226" y1="18.0865" x2="32.7226" y2="25.8745" gradientUnits="userSpaceOnUse">
<stop stop-color="#F58879"/>
<stop offset="1" stop-color="#FEC775"/>
</linearGradient>
</defs>
</svg>
