<svg width="192" height="30" viewBox="0 0 192 30" fill="none" xmlns="http://www.w3.org/2000/svg">
<path d="M30.6064 3.075H36.355C37.629 3.03299 38.8977 3.2692 40.0848 3.76945C40.9734 4.13973 41.7456 4.77555 42.3108 5.6023C42.7839 6.32387 43.0377 7.18596 43.037 8.0696C43.06 8.98336 42.7764 9.87537 42.2385 10.5819C41.6837 11.2904 40.9962 11.8644 40.2212 12.2663C41.228 12.5581 42.1419 13.1405 42.8645 13.9506C43.52 14.7123 43.8739 15.7197 43.8509 16.7584C43.8696 17.5428 43.7085 18.3201 43.3819 19.0213C43.0552 19.7225 42.5731 20.3259 41.9783 20.7781C40.3493 21.8939 38.4322 22.4194 36.5066 22.278H30.6064V3.075ZM36.9935 11.6168C37.2766 11.6087 37.5545 11.5338 37.8078 11.3975C38.0611 11.2612 38.2837 11.0668 38.4599 10.8279C38.955 10.0989 39.1874 9.20064 39.1138 8.30059C39.1497 7.84712 39.0986 7.39053 38.9636 6.95931C38.8286 6.52809 38.6126 6.1315 38.3291 5.79429C37.7576 5.24342 37.0081 4.95684 36.2423 4.99635H34.6132V11.6168H36.9935ZM36.412 20.3641C36.8599 20.3915 37.3084 20.3234 37.7318 20.1638C38.1553 20.0043 38.5455 19.7563 38.88 19.4342C39.2006 19.0548 39.4455 18.6086 39.5996 18.123C39.7537 17.6375 39.8138 17.123 39.776 16.6114C39.776 14.4636 38.9148 13.3897 37.1925 13.3897H34.6132V20.3641H36.412ZM52.5238 22.6139C50.6982 22.7359 48.9008 22.0835 47.5154 20.7961C46.873 20.041 46.3829 19.1505 46.0759 18.1809C45.7689 17.2112 45.6517 16.1835 45.7318 15.1625C45.5988 13.0303 46.2213 10.9231 47.4736 9.26651C48.0732 8.57816 48.804 8.03814 49.6158 7.68366C50.4276 7.32917 51.3011 7.16866 52.176 7.21317C52.9489 7.16388 53.7228 7.2926 54.446 7.59078C55.1692 7.88896 55.8253 8.34977 56.3705 8.94254C57.4412 10.3235 57.9768 12.0963 57.8661 13.8921C57.8727 14.3088 57.8386 14.7251 57.7645 15.134C57.6968 15.469 57.6532 15.676 57.6337 15.755H49.8248C49.7382 17.0661 50.0054 18.3762 50.5941 19.5272C50.8779 19.9109 51.2456 20.2126 51.6642 20.4053C52.0828 20.598 52.5393 20.6756 52.9926 20.6311C53.5961 20.6439 54.1933 20.4966 54.7316 20.2021C55.1765 19.9635 55.5794 19.6432 55.9225 19.2557C56.0892 19.0839 56.2355 18.8905 56.358 18.6798L57.6643 19.7147C57.5093 20.0346 57.3078 20.3258 57.0675 20.5771C56.5705 21.151 55.9802 21.6217 55.3257 21.966C54.4547 22.4232 53.4934 22.6446 52.5252 22.611L52.5238 22.6139ZM54.267 13.8276V13.1527C54.3384 12.0782 54.1794 11.0005 53.8023 10.003C53.6389 9.70153 53.399 9.4567 53.1109 9.29727C52.8228 9.13784 52.4984 9.07045 52.176 9.10302C51.7138 9.07625 51.2572 9.2225 50.8835 9.51699C50.5054 9.90114 50.2469 10.402 50.1434 10.9509C49.9377 11.8955 49.8304 12.8619 49.8234 13.8321L54.267 13.8276ZM63.9054 22.6049C62.744 22.6686 61.5971 22.3036 60.6541 21.57C60.2566 21.2368 59.9386 20.8062 59.7264 20.314C59.5142 19.8218 59.414 19.2821 59.434 18.7398C59.417 17.9204 59.6391 17.1159 60.069 16.4399C60.4988 15.7639 61.1147 15.2505 61.8296 14.9721C63.6011 14.1478 65.4922 13.6626 67.4182 13.5382V12.6817C67.5026 11.7209 67.3082 10.7555 66.8617 9.91896C66.627 9.64769 66.3371 9.43879 66.0148 9.30866C65.6926 9.17854 65.3467 9.13074 65.0044 9.16902C64.5369 9.17937 64.073 9.25912 63.6257 9.406C63.1708 9.54166 62.7246 9.70951 62.2901 9.90846C61.9127 10.0854 61.6659 10.2034 61.55 10.2624L61.173 8.37108C61.2889 8.31209 61.5649 8.1891 62.0008 8.00211C62.5402 7.77991 63.0928 7.59702 63.6549 7.45465C64.3149 7.27853 64.9923 7.18939 65.6722 7.18918C67.141 7.08456 68.6018 7.49382 69.8375 8.35608C70.3547 8.8527 70.7548 9.47493 71.0047 10.1713C71.2546 10.8677 71.3471 11.6182 71.2747 12.3608V19.0637C71.2747 20.1076 71.4778 20.6296 71.884 20.6296C72.0722 20.6252 72.2591 20.5955 72.4405 20.5411L72.8746 20.4271L72.99 21.9645C72.8973 22.0035 72.6654 22.0725 72.2944 22.1715C71.9234 22.2705 71.5024 22.3705 71.0312 22.4715C70.6154 22.5641 70.1925 22.6143 69.768 22.6215C69.2988 22.6531 68.8348 22.5008 68.4616 22.1925C68.1107 21.8171 67.8947 21.3196 67.8522 20.7886H67.7131C67.7131 20.8476 67.5824 21.0301 67.3208 21.3361C66.9654 21.7095 66.5464 22.0054 66.0868 22.2075C65.3942 22.5064 64.6508 22.6439 63.9054 22.611V22.6049ZM65.1825 20.6251C65.607 20.6389 66.026 20.5179 66.3873 20.2771C66.6913 20.0765 66.9533 19.8099 67.1566 19.4942C67.2624 19.3442 67.3503 19.1804 67.4182 19.0067V15.107C66.381 15.1588 65.3705 15.4782 64.4716 16.0385C64.1413 16.2797 63.8751 16.6097 63.6994 16.9959C63.5237 17.3821 63.4446 17.811 63.4699 18.2403C63.4282 18.8751 63.5919 19.5059 63.9332 20.0252C64.0834 20.2239 64.2746 20.3821 64.4914 20.4873C64.7083 20.5924 64.9449 20.6417 65.1825 20.6311V20.6251ZM79.6401 22.6049C79.0333 22.6552 78.4234 22.5724 77.8472 22.3615C77.2709 22.1507 76.7403 21.8161 76.2872 21.378C75.4639 20.3095 75.064 18.9344 75.1743 17.5504V7.50115H79.0349V16.7224C78.9579 17.6496 79.1166 18.5819 79.494 19.4192C79.6657 19.6716 79.8947 19.8721 80.1591 20.0013C80.4235 20.1306 80.7143 20.1842 81.0035 20.1571C81.4322 20.1655 81.8581 20.0803 82.2556 19.9067C82.5649 19.7743 82.8575 19.6005 83.1265 19.3892C83.3398 19.2122 83.4752 19.0942 83.5327 19.0352V7.50865H87.3934V22.2855H84.284L83.7275 20.9851H83.6691C83.6691 21.0241 83.5142 21.1866 83.2044 21.4725C82.795 21.8168 82.3332 22.0817 81.8396 22.2555C81.1305 22.5102 80.3859 22.6305 79.6387 22.611L79.6401 22.6049ZM95.4624 22.6049C94.3599 22.703 93.2657 22.3315 92.4143 21.57C92.0442 21.0879 91.7665 20.5315 91.5972 19.9329C91.4279 19.3343 91.3704 18.7055 91.4279 18.0828V9.77797H90.0367V8.01111L91.4585 7.59714L93.3158 2.60254H95.2858V7.50865H98.4856V9.77797H95.2858V17.0779C95.271 17.7872 95.3152 18.4965 95.4179 19.1972C95.4563 19.571 95.6022 19.9224 95.8353 20.2021C96.064 20.402 96.3539 20.5021 96.6478 20.4826C96.9991 20.4866 97.3497 20.4469 97.6926 20.3641C97.8533 20.3381 98.0097 20.2876 98.1572 20.2141L98.3896 21.8985C98.2939 21.9855 98.1858 22.0554 98.0696 22.1055C97.7583 22.2593 97.4315 22.3736 97.0957 22.446C96.5581 22.5656 96.0099 22.621 95.4611 22.611L95.4624 22.6049ZM102.314 29.9934C101.92 29.998 101.527 29.9633 101.139 29.8899C100.878 29.8423 100.62 29.7731 100.369 29.6829C100.195 29.6139 100.088 29.5694 100.049 29.5494L100.369 27.2441C100.559 27.3218 100.752 27.3859 100.949 27.4361C101.252 27.524 101.565 27.5689 101.879 27.5696C102.283 27.582 102.685 27.4938 103.052 27.3117C103.42 27.1296 103.743 26.8585 103.998 26.5196C104.753 25.4001 105.359 24.1717 105.798 22.8704L99.6125 7.50865H104.287L107.828 18.0273L110.817 7.50565H113.233L108.206 22.611C107.722 24.0086 107.155 25.3708 106.507 26.6891C106.06 27.623 105.445 28.4519 104.699 29.1279C104.022 29.7096 103.178 30.0179 102.313 29.9994L102.314 29.9934ZM123.011 3.075H128.76C130.034 3.03299 131.303 3.2692 132.49 3.76945C133.378 4.13973 134.151 4.77555 134.716 5.6023C135.189 6.32387 135.443 7.18596 135.442 8.0696C135.465 8.98336 135.181 9.87537 134.643 10.5819C134.089 11.2904 133.401 11.8644 132.626 12.2663C133.633 12.5581 134.547 13.1405 135.27 13.9506C135.925 14.7123 136.279 15.7197 136.256 16.7584C136.274 17.5432 136.112 18.3207 135.785 19.022C135.458 19.7232 134.975 20.3264 134.379 20.7781C132.75 21.8939 130.833 22.4194 128.907 22.278H123.011V3.075ZM129.399 11.6168C129.681 11.6085 129.959 11.5335 130.212 11.3972C130.465 11.2609 130.687 11.0666 130.863 10.8279C131.359 10.0989 131.591 9.20064 131.517 8.30059C131.554 7.84625 131.504 7.38859 131.369 6.95628C131.234 6.52397 131.018 6.12633 130.734 5.78829C130.163 5.23742 129.413 4.95084 128.647 4.99035H127.018V11.6108L129.399 11.6168ZM128.814 20.3641C129.263 20.3919 129.712 20.324 130.136 20.1644C130.559 20.0049 130.95 19.7567 131.285 19.4342C131.606 19.0552 131.852 18.6091 132.007 18.1235C132.162 17.638 132.222 17.1233 132.185 16.6114C132.185 14.4636 131.324 13.3897 129.602 13.3897H127.018V20.3641H128.814ZM144.897 22.6139C143.978 22.6774 143.057 22.5312 142.194 22.1849C141.331 21.8386 140.545 21.2999 139.888 20.6041C138.639 19.0222 138.009 16.9782 138.133 14.9046C138.009 12.831 138.639 10.7869 139.888 9.20502C140.545 8.50919 141.331 7.97054 142.194 7.62422C143.057 7.2779 143.978 7.13171 144.897 7.19517C145.82 7.13007 146.746 7.2754 147.613 7.6217C148.481 7.96799 149.272 8.50747 149.933 9.20502C151.183 10.7869 151.812 12.831 151.689 14.9046C151.749 15.9345 151.62 16.967 151.31 17.9432C150.999 18.9194 150.514 19.82 149.88 20.5936C149.225 21.2839 148.445 21.8197 147.587 22.167C146.73 22.5143 145.815 22.6655 144.901 22.611L144.897 22.6139ZM144.897 20.6641C145.455 20.6973 146.003 20.4963 146.427 20.1031C146.864 19.6059 147.152 18.9789 147.255 18.3033C147.454 17.1836 147.541 16.0443 147.516 14.9046C147.541 13.7649 147.454 12.6256 147.255 11.5058C147.155 10.8359 146.872 10.2133 146.442 9.71797C146.013 9.32996 145.463 9.13403 144.904 9.17052C144.345 9.13403 143.794 9.32996 143.365 9.71797C142.935 10.2133 142.652 10.8359 142.553 11.5058C142.355 12.6155 142.267 13.7448 142.291 14.8746C142.267 16.0192 142.354 17.1634 142.553 18.2883C142.653 18.9669 142.94 19.5975 143.376 20.0986C143.798 20.4903 144.345 20.6912 144.901 20.6596L144.897 20.6641ZM160.138 22.6139C159.219 22.6774 158.298 22.5312 157.435 22.1849C156.572 21.8386 155.786 21.2999 155.129 20.6041C153.88 19.0222 153.25 16.9782 153.373 14.9046C153.25 12.831 153.88 10.7869 155.129 9.20502C155.786 8.50919 156.572 7.97054 157.435 7.62422C158.298 7.2779 159.219 7.13171 160.138 7.19517C161.061 7.13007 161.987 7.2754 162.854 7.6217C163.722 7.96799 164.512 8.50747 165.174 9.20502C166.424 10.7869 167.053 12.831 166.93 14.9046C167.05 16.9814 166.401 19.0249 165.125 20.5861C164.471 21.2783 163.689 21.8159 162.831 22.1645C161.973 22.5131 161.057 22.6652 160.142 22.611L160.138 22.6139ZM160.138 20.6641C160.696 20.6973 161.244 20.4963 161.668 20.1031C162.105 19.6059 162.393 18.9789 162.496 18.3033C162.696 17.1812 162.784 16.0394 162.76 14.8971C162.785 13.7574 162.697 12.618 162.499 11.4983C162.399 10.8284 162.116 10.2058 161.686 9.71047C161.257 9.32246 160.706 9.12653 160.147 9.16302C159.588 9.12653 159.038 9.32246 158.609 9.71047C158.179 10.2058 157.896 10.8284 157.796 11.4983C157.598 12.608 157.511 13.7373 157.535 14.8671C157.51 16.0117 157.598 17.1559 157.796 18.2808C157.895 18.9617 158.181 19.595 158.617 20.0986C159.039 20.4903 159.585 20.6912 160.142 20.6596L160.138 20.6641ZM174.072 22.6139C172.97 22.712 171.875 22.3405 171.024 21.579C170.654 21.0969 170.376 20.5405 170.207 19.9419C170.038 19.3433 169.98 18.7145 170.038 18.0918V9.77797H168.646V8.01111L170.07 7.59714L171.927 2.60254H173.901V7.50865H177.101V9.77797H173.901V17.0779C173.885 17.787 173.928 18.4963 174.029 19.1972C174.067 19.571 174.213 19.9224 174.446 20.2021C174.675 20.4021 174.965 20.5023 175.259 20.4826C175.61 20.4866 175.961 20.4469 176.304 20.3641C176.464 20.3381 176.621 20.2876 176.768 20.2141L177.001 21.8985C176.905 21.9855 176.797 22.0554 176.681 22.1055C176.369 22.2593 176.043 22.3736 175.707 22.446C175.171 22.5653 174.624 22.6206 174.076 22.611L174.072 22.6139ZM179.762 0.241727L183.623 0.00474548V8.51657H183.738C183.738 8.47757 183.898 8.34958 184.217 8.1326C184.632 7.86966 185.076 7.6612 185.537 7.51165C186.177 7.30094 186.843 7.19972 187.511 7.21167C188.121 7.15861 188.734 7.24005 189.313 7.451C189.892 7.66195 190.425 7.99799 190.879 8.43858C191.695 9.51092 192.091 10.8842 191.983 12.2663V22.2855H188.151V12.5917C188.225 11.7888 188.073 10.9805 187.716 10.2714C187.52 10.0502 187.279 9.88091 187.012 9.77682C186.745 9.67274 186.459 9.63668 186.177 9.67148C185.736 9.66347 185.298 9.74382 184.885 9.90846C184.56 10.0361 184.252 10.2102 183.971 10.4259C183.844 10.5142 183.727 10.6184 183.623 10.7364V22.2855H179.762V0.241727Z" fill="white"/>
<path fill-rule="evenodd" clip-rule="evenodd" d="M8.7507 22.6233C8.26739 21.5971 7.54355 20.725 6.65102 20.0935C5.75848 19.4621 4.72828 19.0932 3.66266 19.0236C1.64804 18.9321 -0.906419 20.9224 0.323503 22.8093C1.75371 24.5819 3.63661 25.861 5.73711 26.487C6.20176 26.5626 6.67666 26.5084 7.11631 26.3296C7.55597 26.1507 7.94567 25.8531 8.2481 25.4654C8.55053 25.0777 8.75556 24.6127 8.84356 24.1151C8.93156 23.6174 8.89959 23.1038 8.7507 22.6233Z" fill="#FF1A58"/>
<path fill-rule="evenodd" clip-rule="evenodd" d="M3.59136 9.46333C1.99841 6.52656 -2.09039 11.8541 1.32089 15.5168C3.53015 17.8897 6.94421 17.9542 9.3079 20.456C10.6198 21.8448 10.4598 25.4611 13.0837 26.1555C14.1076 26.4868 15.2111 26.3744 16.1594 25.8422C17.1077 25.31 17.826 24.4 18.1616 23.3057C19.1939 20.456 19.2482 17.3407 15.0634 15.3399C10.8257 13.321 6.39468 14.6304 3.59136 9.46333ZM3.49954 0.432543C0.153653 -1.91777 -1.56312 6.0436 1.89685 6.73954C3.07762 6.88299 4.21359 7.30974 5.22135 7.98846C6.22911 8.66718 7.08307 9.58063 7.72051 10.6617C8.83349 12.2966 11.5895 12.8696 13.1811 12.8696C15.9371 12.8696 17.2295 10.9197 17.0987 8.95487C16.9871 8.00694 16.6871 7.09614 16.2192 6.28465C15.7512 5.47316 15.1264 4.78008 14.3872 4.25274C10.4237 1.47196 6.36407 2.43939 3.49954 0.434045V0.432543Z" fill="white"/>
</svg>
